{"title":"Bereavement (2010) DvdRip [Xvid] {1337x}-X","uid":6642278,"size":734451712,"categoryP":"video","categoryS":"movies","magnet":"?xt=urn:btih:627b3a71d88747fbf17c4699ace3f3b892e18092&amp;dn=Bereavement+%282010%29+DvdRip+%5BXvid%5D+%7B1337x%7D-X&amp;tr=udp%3A%2F%2Ftracker.openbittorrent.com%3A80&amp;tr=udp%3A%2F%2Fopen.demonii.com%3A1337&amp;tr=udp%3A%2F%2Ftracker.coppersurfer.tk%3A6969&amp;tr=udp%3A%2F%2Fexodus.desync.com%3A6969","seeders":0,"leechers":1,"uploader":"hiest","files":-1,"time":1314798284,"description":"\nFull Credits To MustangX @ 1337x\n##     ## ##     ##  ######  ########    ###    ##    ##  ######   ##     ## \n###   ### ##     ## ##    ##    ##      ## ##   ###   ## ##    ##   ##   ##  \n#### #### ##     ## ##          ##     ##   ##  ####  ## ##          ## ##   \n## ### ## ##     ##  ######     ##    ##     ## ## ## ## ##   ####    ###    \n##     ## ##     ##       ##    ##    ######### ##  #### ##    ##    ## ##   \n##     ## ##     ## ##    ##    ##    ##     ## ##   ### ##    ##   ##   ##  \n##     ##  #######   ######     ##    ##     ## ##    ##  ######   ##     ## \n\n\nPlot\n\nThe horrific account of 6 year old Martin Bristol, abducted from his backyard swing and forced to witness the brutal crimes of a deranged madman.\n\n\n Video\n ID : 0\n Format : MPEG-4 Visual\n Format profile : Advanced Simple@L5\n Format settings, BVOP : Yes\n Format settings, QPel : No\n Format settings, GMC : No warppoints\n Format settings, Matrix : Default (H.263)\n Muxing mode : Packed bitstream\n Codec ID : XVID\n Codec ID/Hint : XviD\n Duration : 1h 47mn\n Bit rate : 796 Kbps\n Width : 720 pixels\n Height : 288 pixels\n Display aspect ratio : 2.500\n Frame rate : 23.976 fps\n Color space : YUV\n Chroma subsampling : 4:2:0\n Bit depth : 8 bits\n Scan type : Progressive\n Bits/(Pixel*Frame) : 0.160\n Stream size : 612 MiB (87%)\n Writing library : XviD 57\n\n Audio\n ID : 1\n Format : MPEG Audio\n Format version : Version 1\n Format profile : Layer 3\n Mode : Joint stereo\n Mode extension : MS Stereo\n Codec ID : 55\n Codec ID/Hint : MP3\n Duration : 1h 47mn\n Bit rate mode : Variable\n Bit rate : 103 Kbps\n Nominal bit rate : 112 Kbps\n Channel(s) : 2 channels\n Sampling rate : 48.0 KHz\n Stream size : 79.1 MiB (11%)\n Alignment : Aligned on interleaves\n Interleave, duration : 24 ms (0.58 video frame)\n Interleave, preload duration : 178 ms\n Writing library : LAME3.97 \n Encoding settings : -m j -V 4 -q 2 -lowpass 16 --abr 112\n\n IMDB\n\n &lt;a href=&quot; http://www.imdb.com/title/tt1100051/&quot; rel=&quot;nofollow&quot; target=&quot;_NEW&quot;&gt; http://www.imdb.com/title/tt1100051/&lt;/a&gt;\n \n Shout out to nor and all my friends @ 1337x.org and extratorrent\n\n\n\n\n ==================================                                   \n &lt;a href=&quot; http://thepiratebay.se/user/hiest&quot; rel=&quot;nofollow&quot; target=&quot;_NEW&quot;&gt; http://thepiratebay.se/user/hiest&lt;/a&gt;\n ==================================\n\n\n\n\n Screens:\n \n &lt;a href=&quot; http://www.postimg.com/image/46000/photo-45902.jpg&quot; rel=&quot;nofollow&quot; target=&quot;_NEW&quot;&gt; http://www.postimg.com/image/46000/photo-45902.jpg&lt;/a&gt;\n\n\nFull Credits To MustangX @ 1337x\n##     ## ##     ##  ######  ########    ###    ##    ##  ######   ##     ## \n###   ### ##     ## ##    ##    ##      ## ##   ###   ## ##    ##   ##   ##  \n#### #### ##     ## ##          ##     ##   ##  ####  ## ##          ## ##   \n## ### ## ##     ##  ######     ##    ##     ## ## ## ## ##   ####    ###    \n##     ## ##     ##       ##    ##    ######### ##  #### ##    ##    ## ##   \n##     ## ##     ## ##    ##    ##    ##     ## ##   ### ##    ##   ##   ##  \n##     ##  #######   ######     ##    ##     ## ##    ##  ######   ##     ## \n\t","torrent":{"xt":"urn:btih:627b3a71d88747fbf17c4699ace3f3b892e18092","amp;dn":"Bereavement+%282010%29+DvdRip+%5BXvid%5D+%7B1337x%7D-X","amp;tr":["udp%3A%2F%2Ftracker.openbittorrent.com%3A80","udp%3A%2F%2Fopen.demonii.com%3A1337","udp%3A%2F%2Ftracker.coppersurfer.tk%3A6969","udp%3A%2F%2Fexodus.desync.com%3A6969"],"infoHash":"627b3a71d88747fbf17c4699ace3f3b892e18092","infoHashBuffer":{"type":"Buffer","data":[98,123,58,113,216,135,71,251,241,124,70,153,172,227,243,184,146,225,128,146]},"announce":[],"urlList":[]}}